<?xml version="1.0" encoding="UTF-8" standalone="no"?>
<svg
   width="864"
   height="150"
   viewBox="0 0 864 150"
   fill="none"
   version="1.1"
   id="svg12"
   sodipodi:docname="watermarkv2.svg"
   inkscape:version="1.3.2 (091e20e, 2023-11-25, custom)"
   xmlns:inkscape="http://www.inkscape.org/namespaces/inkscape"
   xmlns:sodipodi="http://sodipodi.sourceforge.net/DTD/sodipodi-0.dtd"
   xmlns="http://www.w3.org/2000/svg"
   xmlns:svg="http://www.w3.org/2000/svg">
  <defs
     id="defs12" />
  <sodipodi:namedview
     id="namedview12"
     pagecolor="#ffffff"
     bordercolor="#000000"
     borderopacity="0.25"
     inkscape:showpageshadow="2"
     inkscape:pageopacity="0.0"
     inkscape:pagecheckerboard="0"
     inkscape:deskcolor="#d1d1d1"
     inkscape:zoom="1.515625"
     inkscape:cx="520.90722"
     inkscape:cy="6.927835"
     inkscape:window-width="3440"
     inkscape:window-height="1377"
     inkscape:window-x="-8"
     inkscape:window-y="-8"
     inkscape:window-maximized="1"
     inkscape:current-layer="svg12" />
  <path
     d="M 532.312,89.449 V 8.9561 h 20.821 v 21.4647 h 24.148 L 588.979,42.119 V 77.75 l -11.698,11.699 h -19.426 l -7.298,-7.298 v 7.298 z m 20.821,-21.465 2.468,2.1465 h 12.557 V 49.0951 h -15.025 z"
     fill="white"
     id="path1"
     style="fill:#666666;fill-opacity:0.3" />
  <path
     d="M 493.913,89.448 H 474.917 L 463.219,77.75 V 30.4204 h 20.821 v 39.7097 h 12.127 l 2.469,-2.1465 V 30.4204 h 20.82 V 89.448 H 501.211 V 82.15 Z"
     fill="white"
     id="path2"
     style="fill:#666666;fill-opacity:0.3" />
  <path
     d="M 383.313,89.45 V 14.3232 h 21.464 V 42.442 h 22.538 V 14.3232 H 448.78 V 89.45 H 427.315 V 60.687 H 404.777 V 89.45 Z"
     fill="white"
     id="path3"
     style="fill:#666666;fill-opacity:0.3" />
  <path
     d="M 314.752,89.45 H 293.287 V 74.5317 L 313.464,51.5645 293.931,29.2412 v -14.918 h 21.465 v 11.3763 l 10.303,12.0203 10.303,-12.0203 V 14.3232 h 21.464 v 14.918 L 337.933,51.5645 358.11,74.5317 V 89.45 H 336.646 V 78.073 L 325.699,65.3019 314.752,78.073 Z"
     fill="white"
     id="path4"
     style="fill:#666666;fill-opacity:0.3" />
  <path
     d="M 234.936,89.448 H 214.115 V 30.4204 h 18.245 v 7.298 l 7.298,-7.298 h 19.425 l 11.699,11.6983 V 89.448 H 249.961 V 49.7386 h -12.557 l -2.468,2.1465 z"
     fill="white"
     id="path5"
     style="fill:#666666;fill-opacity:0.3" />
  <path
     d="M 202.266,42.1187 V 89.448 H 184.987 V 82.15 l -7.298,7.298 H 159.444 L 147.746,77.75 V 67.0177 l 11.698,-11.6982 h 22.86 v -7.298 h -14.059 v 3.2197 H 148.712 V 42.1187 L 160.41,30.4204 h 30.158 z m -19.962,23.2892 h -14.596 v 8.1566 h 12.128 l 2.468,-1.9319 z"
     fill="white"
     id="path6"
     style="fill:#666666;fill-opacity:0.3" />
  <path
     d="m 139.137,89.449 h -24.9 L 102.539,77.75 V 46.5193 H 95.2412 V 30.4208 h 7.2978 V 17.0054 h 20.821 v 13.4154 h 15.347 V 46.5193 H 123.36 v 23.6112 h 15.777 z"
     fill="white"
     id="path7"
     style="fill:#666666;fill-opacity:0.3" />
  <path
     d="M 88.833,89.448 H 68.0122 V 30.4204 H 88.833 Z"
     fill="white"
     id="path8"
     style="fill:#666666;fill-opacity:0.3" />
  <path
     d="M 88.8402,12.4144 C 88.8402,6.6627 84.1775,2 78.4258,2 72.6741,2 68.0115,6.6627 68.0115,12.4144 c 0,5.7516 4.6626,10.4143 10.4143,10.4143 5.7517,0 10.4144,-4.6627 10.4144,-10.4143 z"
     fill="#74F96D"
     id="path9"
     style="fill:#666666;fill-opacity:0.3" />
  <path
     d="M 2,33.6415 V 14.3232 H 59.9547 V 33.6415 H 41.7097 V 89.45 H 20.245 V 33.6415 Z"
     fill="white"
     id="path10"
     style="fill:#666666;fill-opacity:0.3" />
  <path
     d="m 665.131,71.2227 v -7.2755 h 20.504 V 78.388 L 673.619,90.403 H 642.534 L 630.518,78.388 V 41.7903 l 12.016,-12.0155 h 31.085 l 12.016,12.0155 v 14.4406 h -20.504 v -7.2754 h -13.669 v 22.2672 z m 42.423,-41.4479 h 34.173 l 12.015,12.0155 V 78.388 L 741.727,90.403 H 707.554 L 695.539,78.388 V 41.7903 Z m 24.803,41.4479 V 48.9555 H 716.924 V 71.2227 Z M 786.694,90.403 H 765.309 V 29.7748 h 18.74 v 7.4959 l 7.495,-7.4959 h 21.055 l 6.614,6.614 6.614,-6.614 h 22.047 l 12.015,12.0155 V 90.403 H 838.504 V 49.6169 H 823.512 V 90.403 H 802.127 V 49.6169 H 789.23 l -2.536,2.2046 z"
     fill="white"
     id="path11"
     style="fill:#666666;fill-opacity:0.3" />
  <path
     d="m 623.013,80.24 c 0,-6.0787 -4.927,-11.0066 -11.006,-11.0066 -6.079,0 -11.007,4.9279 -11.007,11.0066 0,6.079 4.928,11.007 11.007,11.007 6.079,0 11.006,-4.928 11.006,-11.007 z"
     fill="#74F96D"
     id="path12"
     style="fill:#666666;fill-opacity:0.3" />
  <path
     style="font-size:53.3333px;font-family:'The Bold Font';-inkscape-font-specification:'The Bold Font';fill:#666666;fill-opacity:0.3;stroke-width:37.7953;stroke-linecap:round;stroke-linejoin:round"
     d="m 98.430824,120.6702 q 0.48,0 0.746666,-0.32 0.32,-0.32 0.32,-0.8 -0.05333,-2.34666 -1.013333,-4.42666 -0.906666,-2.08 -2.506665,-3.57333 -1.599999,-1.54667 -3.733331,-2.4 -2.079999,-0.90667 -4.426664,-0.85333 -4.746664,0.10666 -8.053329,3.46666 -1.599999,1.65333 -2.453331,3.78666 -0.853333,2.08 -0.8,4.37334 0.05333,2.34666 0.906666,4.42666 0.906666,2.02666 2.613332,3.62666 1.653332,1.6 3.733331,2.45334 2.079999,0.85333 4.426664,0.79999 h 0.106667 q 0.16,0 0.693333,-0.0533 0.586666,-0.0533 1.439999,-0.26666 0.853333,-0.26667 1.919999,-0.69334 1.119999,-0.48 2.346665,-1.22666 l 4.426664,6.98666 q -2.026666,1.28 -3.839998,1.97333 -1.813332,0.69333 -3.306665,1.06667 -1.439999,0.32 -2.453331,0.42666 -0.96,0.0533 -1.28,0.0533 -1.279999,0 -2.559998,-0.16 -6.61333,-0.74667 -11.413327,-5.38667 -2.879998,-2.77333 -4.426664,-6.29333 -1.493332,-3.57333 -1.599999,-7.57333 -0.106666,-3.99999 1.333333,-7.57332 1.493332,-3.62667 4.213331,-6.50667 2.773331,-2.87999 6.293329,-4.37333 3.573331,-1.54666 7.573329,-1.6 4.053331,-0.05333 7.679995,1.44 3.626665,1.49334 6.346668,4.16 2.77333,2.61333 4.37333,6.18666 1.6,3.57333 1.70666,7.62667 0,1.86666 -0.74666,3.46666 -0.74667,1.54667 -2.02667,2.72 -1.22667,1.17333 -2.88,1.86666 -1.6,0.69334 -3.41333,0.69334 -0.266666,0 -0.586666,0 -0.32,0 -0.586666,-0.0533 -1.919999,-0.26666 -3.466665,-1.22666 -2.506665,2.13333 -5.919996,2.24 -0.32,0 -0.64,0 -0.32,-0.0533 -0.586666,-0.0533 -1.759999,-0.21333 -3.253332,-1.01333 -1.493332,-0.8 -2.613331,-2.02667 -1.12,-1.22666 -1.759999,-2.77333 -0.64,-1.6 -0.693333,-3.35999 0,-1.97334 0.693333,-3.68 0.693333,-1.76 1.919999,-3.04 1.279999,-1.28 2.986664,-2.02667 1.706666,-0.8 3.679998,-0.8 0.266667,0 0.586667,0 0.319999,0 0.639999,0.0533 1.706666,0.21333 3.199998,1.01333 1.493333,0.74667 2.613332,1.97333 1.119999,1.22667 1.759999,2.82667 0.693333,1.6 0.693333,3.36 v 0.0533 q 0.106666,1.01333 1.066666,1.01333 z m -10.399994,0.96 q 0.746666,-0.0533 1.279999,-0.58667 0.586667,-0.58666 0.533333,-1.33333 0,-0.69333 -0.479999,-1.17333 -0.426667,-0.53333 -1.12,-0.64 h -0.266666 q -0.746666,0 -1.333333,0.58667 -0.533333,0.53333 -0.533333,1.28 0.05333,0.74666 0.48,1.22666 0.48,0.48 1.173333,0.58667 0.106666,0.0533 0.266666,0.0533 z m 45.6,-21.43999 v 9.06666 h -7.52 v 30.23999 h -9.01333 v -30.23999 h -7.46666 v -9.06666 z m 28.37331,9.17333 h -16.10665 v 5.92 h 13.06666 v 9.01333 h -13.06666 v 6.18666 h 16.10665 v 9.01333 h -25.11998 v -39.09331 l 25.11998,-0.0533 z m 27.20004,-9.01333 h 9.01332 v 39.14665 h -9.75999 L 175.65752,116.6702 v 22.82666 h -9.01333 v -39.03998 h 9.81333 l 12.74666,22.77332 z m 45.59994,-0.32 -11.51999,19.09333 12.53333,20.37332 h -10.61333 l -7.14666,-11.62666 -7.04,11.62666 h -10.50666 l 12.21333,-20.31999 -11.73333,-19.14666 h 10.55999 l 6.45333,10.45333 6.24,-10.45333 z m 26.18666,0.16 v 9.06666 h -7.51999 v 30.23999 h -9.01333 v -30.23999 h -7.46666 v -9.06666 z m 28.37332,9.17333 h -16.10666 v 5.92 h 13.06666 v 9.01333 h -13.06666 v 6.18666 h 16.10666 v 9.01333 h -25.11999 v -39.09331 l 25.11999,-0.0533 z m 12.4267,-9.17333 q 3.89333,0.21334 7.30666,1.86667 3.46667,1.65333 5.97333,4.32 2.56,2.66666 4,6.18666 1.49333,3.52 1.49333,7.51999 0,3.94667 -1.44,7.41333 -1.44,3.41334 -4,6.02667 -2.50666,2.61333 -5.91999,4.21333 -3.41333,1.54666 -7.41333,1.76 h -9.01333 v -39.35998 h 9.01333 z m 0,30.23999 q 2.08,-0.21334 3.84,-1.06667 1.81333,-0.90667 3.09333,-2.24 1.33333,-1.38667 2.08,-3.2 0.74666,-1.81333 0.74666,-3.84 0,-2.07999 -0.74666,-3.94666 -0.74667,-1.92 -2.08,-3.36 -1.33334,-1.49333 -3.09333,-2.4 -1.76,-0.96 -3.84,-1.17333 z"
     id="text12"
     aria-label="@TENXTED" />
  <path
     style="font-size:53.3333px;font-family:'The Bold Font';-inkscape-font-specification:'The Bold Font';fill:#666666;fill-opacity:0.3;stroke-width:37.7953;stroke-linecap:round;stroke-linejoin:round"
     d="m 444.19786,120.6702 q 0.48,0 0.74667,-0.32 0.32,-0.32 0.32,-0.8 -0.0533,-2.34666 -1.01334,-4.42666 -0.90666,-2.08 -2.50666,-3.57333 -1.6,-1.54667 -3.73333,-2.4 -2.08,-0.90667 -4.42667,-0.85333 -4.74666,0.10666 -8.05333,3.46666 -1.59999,1.65333 -2.45333,3.78666 -0.85333,2.08 -0.8,4.37334 0.0533,2.34666 0.90667,4.42666 0.90667,2.02666 2.61333,3.62666 1.65333,1.6 3.73333,2.45334 2.08,0.85333 4.42667,0.79999 h 0.10666 q 0.16,0 0.69334,-0.0533 0.58666,-0.0533 1.44,-0.26666 0.85333,-0.26667 1.91999,-0.69334 1.12,-0.48 2.34667,-1.22666 l 4.42666,6.98666 q -2.02666,1.28 -3.83999,1.97333 -1.81334,0.69333 -3.30667,1.06667 -1.44,0.32 -2.45333,0.42666 -0.96,0.0533 -1.28,0.0533 -1.28,0 -2.56,-0.16 -6.61333,-0.74667 -11.41333,-5.38667 -2.87999,-2.77333 -4.42666,-6.29333 -1.49333,-3.57333 -1.6,-7.57333 -0.10666,-3.99999 1.33333,-7.57332 1.49334,-3.62667 4.21334,-6.50667 2.77333,-2.87999 6.29332,-4.37333 3.57334,-1.54666 7.57333,-1.6 4.05333,-0.05333 7.68,1.44 3.62666,1.49334 6.34666,4.16 2.77333,2.61333 4.37333,6.18666 1.6,3.57333 1.70667,7.62667 0,1.86666 -0.74667,3.46666 -0.74666,1.54667 -2.02666,2.72 -1.22667,1.17333 -2.88,1.86666 -1.6,0.69334 -3.41333,0.69334 -0.26667,0 -0.58667,0 -0.32,0 -0.58667,-0.0533 -1.91999,-0.26666 -3.46666,-1.22666 -2.50667,2.13333 -5.92,2.24 -0.32,0 -0.64,0 -0.32,-0.0533 -0.58666,-0.0533 -1.76,-0.21333 -3.25333,-1.01333 -1.49334,-0.8 -2.61334,-2.02667 -1.12,-1.22666 -1.75999,-2.77333 -0.64,-1.6 -0.69334,-3.35999 0,-1.97334 0.69334,-3.68 0.69333,-1.76 1.91999,-3.04 1.28,-1.28 2.98667,-2.02667 1.70666,-0.8 3.68,-0.8 0.26666,0 0.58666,0 0.32,0 0.64,0.0533 1.70667,0.21333 3.2,1.01333 1.49333,0.74667 2.61333,1.97333 1.12,1.22667 1.76,2.82667 0.69333,1.6 0.69333,3.36 v 0.0533 q 0.10667,1.01333 1.06667,1.01333 z m -10.39999,0.96 q 0.74666,-0.0533 1.28,-0.58667 0.58666,-0.58666 0.53333,-1.33333 0,-0.69333 -0.48,-1.17333 -0.42667,-0.53333 -1.12,-0.64 h -0.26667 q -0.74666,0 -1.33333,0.58667 -0.53333,0.53333 -0.53333,1.28 0.0533,0.74666 0.48,1.22666 0.48,0.48 1.17333,0.58667 0.10667,0.0533 0.26667,0.0533 z m 49.27999,-21.33332 h 9.28 l 2.29333,39.19998 h -9.01333 l -0.96,-15.99999 -5.44,15.99999 h -9.01333 l -5.75999,-16.63999 -1.06667,16.63999 h -9.06666 l 2.50667,-39.19998 h 9.27999 l 8.58666,24.53332 z m 23.30662,39.19998 h -9.01332 v -39.19998 h 9.01332 z m 39.9466,-39.19998 -20.10666,19.62666 20.10666,19.57332 h -13.01333 l -12.58666,-12.32 v 12.32 h -9.01332 v -39.19998 h 9.01332 v 12.37333 l 12.64,-12.37333 z m 25.11997,9.06666 h -16.10666 v 5.92 h 13.06666 v 9.01333 h -13.06666 v 6.18666 h 16.10666 v 9.01333 h -25.11998 v -39.09331 l 25.11998,-0.0533 z m 12.42672,-9.17333 q 3.89333,0.21334 7.30666,1.86667 3.46666,1.65333 5.97333,4.32 2.56,2.66666 4,6.18666 1.49333,3.52 1.49333,7.51999 0,3.94667 -1.44,7.41333 -1.44,3.41334 -4,6.02667 -2.50666,2.61333 -5.92,4.21333 -3.41333,1.54666 -7.41332,1.76 h -9.01333 v -39.35998 h 9.01333 z m 0,30.23999 q 2.07999,-0.21334 3.83999,-1.06667 1.81334,-0.90667 3.09333,-2.24 1.33334,-1.38667 2.08,-3.2 0.74667,-1.81333 0.74667,-3.84 0,-2.07999 -0.74667,-3.94666 -0.74666,-1.92 -2.08,-3.36 -1.33333,-1.49333 -3.09333,-2.4 -1.76,-0.96 -3.83999,-1.17333 z m 45.38667,-21.06666 h -16.10666 v 5.92 h 13.06666 v 9.01333 h -13.06666 v 6.18666 h 16.10666 v 9.01333 h -25.11999 v -39.09331 l 25.11999,-0.0533 z m 27.04002,30.13332 -1.54667,-4.74667 H 642.4378 l -1.6,4.74667 h -9.54666 l 13.33333,-39.14665 h 8.53333 l 12.63999,39.14665 z m -10.77333,-13.76 h 6.34667 l -3.09334,-9.49332 z m 45.49336,-25.38665 h 9.01333 v 39.14665 h -9.76 L 677.47783,116.6702 v 22.82666 h -9.01333 v -39.03998 h 9.81333 l 12.74666,22.77332 z m 37.27994,39.14665 h -23.30665 v -39.19998 h 9.01333 v 30.18665 h 14.29332 z m 12.69334,0 h -9.01333 v -39.19998 h 9.01333 z m 25.43995,-39.46665 h 9.54666 l -13.33333,39.46665 h -8.53332 l -12.64,-39.46665 h 9.49333 l 7.52,24.21332 z m 34.39999,9.33333 h -16.10666 v 5.92 h 13.06666 v 9.01333 h -13.06666 v 6.18666 h 16.10666 v 9.01333 h -25.11999 v -39.09331 l 25.11999,-0.0533 z"
     id="text12-8"
     aria-label="@MIKEDEANLIVE" />
</svg>
