<?xml version="1.0" encoding="UTF-8" standalone="no"?>
<svg
   class="w-[120px] md:w-[150px]"
   viewBox="0 0 149 35"
   fill="none"
   version="1.1"
   id="svg10"
   sodipodi:docname="watermark.svg"
   width="149"
   height="35"
   xml:space="preserve"
   inkscape:version="1.3.2 (091e20e, 2023-11-25, custom)"
   xmlns:inkscape="http://www.inkscape.org/namespaces/inkscape"
   xmlns:sodipodi="http://sodipodi.sourceforge.net/DTD/sodipodi-0.dtd"
   xmlns="http://www.w3.org/2000/svg"
   xmlns:svg="http://www.w3.org/2000/svg"><defs
     id="defs10" /><sodipodi:namedview
     id="namedview10"
     pagecolor="#ffffff"
     bordercolor="#000000"
     borderopacity="0.25"
     inkscape:showpageshadow="2"
     inkscape:pageopacity="0.0"
     inkscape:pagecheckerboard="0"
     inkscape:deskcolor="#d1d1d1"
     inkscape:zoom="4.3942953"
     inkscape:cx="82.379534"
     inkscape:cy="4.6651394"
     inkscape:window-width="1605"
     inkscape:window-height="1237"
     inkscape:window-x="421"
     inkscape:window-y="66"
     inkscape:window-maximized="0"
     inkscape:current-layer="svg10" /><path
     d="M 133.954,22 V 1.75 h 5.238 v 5.4 h 6.075 l 2.943,2.943 v 8.964 L 145.267,22 h -4.887 l -1.836,-1.836 V 22 Z m 5.238,-5.4 0.621,0.54 h 3.159 v -5.292 h -3.78 z"
     fill="white"
     id="path1"
     style="fill:#f2f2f2;opacity:0.3" /><path
     d="m 124.294,22 h -4.779 l -2.943,-2.943 V 7.15002 h 5.238 V 17.14 h 3.051 l 0.621,-0.54 V 7.15002 h 5.238 V 22 h -4.59 v -1.836 z"
     fill="white"
     id="path2"
     style="fill:#f2f2f2;opacity:0.3" /><path
     d="M 96.4692,22 V 3.09998 h 5.3998 V 10.174 h 5.67 V 3.09998 h 5.4 V 22 h -5.4 v -7.236 h -5.67 V 22 Z"
     fill="white"
     id="path3"
     style="fill:#f2f2f2;opacity:0.3" /><path
     d="m 79.2208,22 h -5.4 v -3.753 l 5.076,-5.778 -4.914,-5.61602 v -3.753 h 5.4 v 2.862 l 2.592,3.024 2.592,-3.024 v -2.862 h 5.4 v 3.753 l -4.914,5.61602 5.076,5.778 V 22 h -5.4 v -2.862 l -2.754,-3.213 -2.754,3.213 z"
     fill="white"
     id="path4"
     style="fill:#f2f2f2;opacity:0.3" /><path
     d="m 59.1411,22 h -5.238 V 7.15002 h 4.59 v 1.836 l 1.836,-1.836 h 4.887 l 2.943,2.94298 V 22 h -5.238 v -9.99 h -3.159 l -0.621,0.54 z"
     fill="white"
     id="path5"
     style="fill:#f2f2f2;opacity:0.3" /><path
     d="M 50.9223,10.093 V 22 h -4.347 V 20.164 L 44.7393,22 h -4.59 l -2.943,-2.943 v -2.7 l 2.943,-2.943 h 5.751 v -1.836 h -3.537 v 0.81 h -4.914 v -2.295 l 2.943,-2.94298 h 7.587 z m -5.022,5.859 h -3.672 v 2.052 h 3.051 l 0.621,-0.486 z"
     fill="white"
     id="path6"
     style="fill:#f2f2f2;opacity:0.3" /><path
     d="m 35.0403,22 h -6.264 l -2.943,-2.943 V 11.2 h -1.836 V 7.15002 h 1.836 v -3.375 h 5.238 v 3.375 h 3.861 V 11.2 h -3.861 v 5.94 h 3.969 z"
     fill="white"
     id="path7"
     style="fill:#f2f2f2;opacity:0.3" /><path
     d="m 22.3852,22 h -5.238 V 7.15002 h 5.238 z"
     fill="white"
     id="path8"
     style="fill:#f2f2f2;opacity:0.3" /><path
     d="M 22.387,2.62 C 22.387,1.17301 21.214,0 19.767,0 c -1.447,0 -2.62,1.17301 -2.62,2.62 0,1.44699 1.173,2.62 2.62,2.62 1.447,0 2.62,-1.17301 2.62,-2.62 z"
     fill="#74f96d"
     id="path9"
     style="fill:#f2f2f2;opacity:0.3" /><path
     d="m 0.540039,7.95998 v -4.86 H 15.12 v 4.86 H 10.53 V 22 H 5.13004 V 7.95998 Z"
     fill="white"
     id="path10"
     style="fill:#f2f2f2;opacity:0.3" /><path
     d="m 7.9256164,28.554432 q 0.108,0 0.168,-0.072 0.072,-0.072 0.072,-0.18 -0.012,-0.528 -0.228,-0.996 -0.204,-0.468 -0.564,-0.804 -0.36,-0.348 -0.84,-0.54 -0.468,-0.204 -0.996,-0.192 -1.068,0.024 -1.812,0.78 -0.36,0.372 -0.552,0.852 -0.192,0.468 -0.18,0.984 0.012,0.528 0.204,0.996 0.204,0.456 0.588,0.816 0.372,0.36 0.84,0.552 0.468,0.192 0.996,0.18 h 0.024 q 0.036,0 0.156,-0.012 0.132,-0.012 0.324,-0.06 0.192,-0.06 0.432,-0.156 0.252,-0.108 0.528,-0.276 l 0.996,1.572 q -0.456,0.288 -0.864,0.444 -0.408,0.156 -0.744,0.24 -0.324,0.072 -0.552,0.096 -0.216,0.012 -0.288,0.012 -0.288,0 -0.576,-0.036 -1.488,-0.168 -2.568,-1.212 -0.648,-0.624 -0.996,-1.416 -0.336,-0.804 -0.36,-1.704 -0.024,-0.9 0.3,-1.704 0.336,-0.816 0.948,-1.464 0.624,-0.648 1.416,-0.984 0.804,-0.348 1.704,-0.36 0.912,-0.012 1.728,0.324 0.816,0.336 1.428,0.936 0.624,0.588 0.984,1.392 0.3599996,0.804 0.3839996,1.716 0,0.42 -0.1679996,0.78 -0.168,0.348 -0.456,0.612 -0.276,0.264 -0.648,0.42 -0.36,0.156 -0.768,0.156 -0.06,0 -0.132,0 -0.072,0 -0.132,-0.012 -0.432,-0.06 -0.78,-0.276 -0.564,0.48 -1.332,0.504 -0.072,0 -0.144,0 -0.072,-0.012 -0.132,-0.012 -0.396,-0.048 -0.732,-0.228 -0.336,-0.18 -0.588,-0.456 -0.252,-0.276 -0.396,-0.624 -0.144,-0.36 -0.156,-0.756 0,-0.444 0.156,-0.828 0.156,-0.396 0.432,-0.684 0.288,-0.288 0.672,-0.456 0.384,-0.18 0.828,-0.18 0.06,0 0.132,0 0.072,0 0.144,0.012 0.384,0.048 0.72,0.228 0.336,0.168 0.588,0.444 0.252,0.276 0.396,0.636 0.156,0.36 0.156,0.756 v 0.012 q 0.024,0.228 0.24,0.228 z m -2.34,0.216 q 0.168,-0.012 0.288,-0.132 0.132,-0.132 0.12,-0.3 0,-0.156 -0.108,-0.264 -0.096,-0.12 -0.252,-0.144 h -0.06 q -0.168,0 -0.3,0.132 -0.12,0.12 -0.12,0.288 0.012,0.168 0.108,0.276 0.108,0.108 0.264,0.132 0.024,0.012 0.06,0.012 z m 10.2600056,-4.824 v 2.04 h -1.692 v 6.804 h -2.028 v -6.804 h -1.68 v -2.04 z m 6.384,2.064 h -3.624 v 1.332 h 2.94 v 2.028 h -2.94 v 1.392 h 3.624 v 2.028 h -5.652 v -8.796 l 5.652,-0.012 z m 6.120011,-2.028 h 2.028 v 8.808 h -2.196 l -2.88,-5.136 v 5.136 h -2.028 v -8.784 h 2.208 l 2.868,5.124 z m 10.259994,-0.072 -2.592,4.296 2.82,4.584 h -2.388 l -1.608,-2.616 -1.584,2.616 h -2.364 l 2.748,-4.572 -2.64,-4.308 h 2.376 l 1.452,2.352 1.404,-2.352 z m 5.892001,0.036 v 2.04 h -1.692 v 6.804 h -2.028 v -6.804 h -1.68 v -2.04 z m 6.384,2.064 h -3.624 v 1.332 h 2.94 v 2.028 h -2.94 v 1.392 h 3.624 v 2.028 h -5.652 v -8.796 l 5.652,-0.012 z m 2.796011,-2.064 q 0.876,0.048 1.644,0.42 0.78,0.372 1.344,0.972 0.576,0.6 0.9,1.392 0.336,0.792 0.336,1.692 0,0.888 -0.324,1.668 -0.324,0.768 -0.9,1.356 -0.564,0.588 -1.332,0.948 -0.768,0.348 -1.668,0.396 h -2.028 v -8.856 h 2.028 z m 0,6.804 q 0.468,-0.048 0.864,-0.24 0.408,-0.204 0.696,-0.504 0.3,-0.312 0.468,-0.72 0.168,-0.408 0.168,-0.864 0,-0.468 -0.168,-0.888 -0.168,-0.432 -0.468,-0.756 -0.3,-0.336 -0.696,-0.54 -0.396,-0.216 -0.864,-0.264 z"
     id="text10"
     style="font-weight:bold;font-size:12px;font-family:'The Bold Font';-inkscape-font-specification:'The Bold Font Bold';opacity:0.3;fill:#f2f2f2;stroke-width:37.7953;stroke-linecap:round;stroke-linejoin:round"
     aria-label="@tENxtED" /><path
     d="m 67.68597,28.554432 q 0.108,0 0.168,-0.072 0.072,-0.072 0.072,-0.18 -0.012,-0.528 -0.228,-0.996 -0.204,-0.468 -0.564,-0.804 -0.36,-0.348 -0.84,-0.54 -0.468,-0.204 -0.996,-0.192 -1.068,0.024 -1.812,0.78 -0.36,0.372 -0.552,0.852 -0.192,0.468 -0.18,0.984 0.012,0.528 0.204,0.996 0.204,0.456 0.588,0.816 0.372,0.36 0.84,0.552 0.468,0.192 0.996,0.18 h 0.024 q 0.036,0 0.156,-0.012 0.132,-0.012 0.324,-0.06 0.192,-0.06 0.432,-0.156 0.252,-0.108 0.528,-0.276 l 0.996,1.572 q -0.456,0.288 -0.864,0.444 -0.408,0.156 -0.744,0.24 -0.324,0.072 -0.552,0.096 -0.216,0.012 -0.288,0.012 -0.288,0 -0.576,-0.036 -1.488,-0.168 -2.568,-1.212 -0.648,-0.624 -0.996,-1.416 -0.336,-0.804 -0.36,-1.704 -0.024,-0.9 0.3,-1.704 0.336,-0.816 0.948,-1.464 0.624,-0.648 1.416,-0.984 0.804,-0.348 1.704,-0.36 0.912,-0.012 1.728,0.324 0.816,0.336 1.428,0.936 0.624,0.588 0.984,1.392 0.36,0.804 0.384,1.716 0,0.42 -0.168,0.78 -0.168,0.348 -0.456,0.612 -0.276,0.264 -0.648,0.42 -0.36,0.156 -0.768,0.156 -0.06,0 -0.132,0 -0.072,0 -0.132,-0.012 -0.432,-0.06 -0.78,-0.276 -0.564,0.48 -1.332,0.504 -0.072,0 -0.144,0 -0.072,-0.012 -0.132,-0.012 -0.396,-0.048 -0.732,-0.228 -0.336,-0.18 -0.588,-0.456 -0.252,-0.276 -0.396,-0.624 -0.144,-0.36 -0.156,-0.756 0,-0.444 0.156,-0.828 0.156,-0.396 0.432,-0.684 0.288,-0.288 0.672,-0.456 0.384,-0.18 0.828,-0.18 0.06,0 0.132,0 0.072,0 0.144,0.012 0.384,0.048 0.72,0.228 0.336,0.168 0.588,0.444 0.252,0.276 0.396,0.636 0.156,0.36 0.156,0.756 v 0.012 q 0.024,0.228 0.24,0.228 z m -2.34,0.216 q 0.168,-0.012 0.288,-0.132 0.132,-0.132 0.12,-0.3 0,-0.156 -0.108,-0.264 -0.096,-0.12 -0.252,-0.144 h -0.06 q -0.168,0 -0.3,0.132 -0.12,0.12 -0.12,0.288 0.012,0.168 0.108,0.276 0.108,0.108 0.264,0.132 0.024,0.012 0.06,0.012 z m 11.088006,-4.8 h 2.088 l 0.516,8.82 h -2.028 l -0.216,-3.6 -1.224,3.6 h -2.028 l -1.296,-3.744 -0.24,3.744 h -2.04 l 0.564,-8.82 h 2.088 l 1.932,5.52 z m 5.243993,8.82 h -2.028 v -8.82 h 2.028 z m 8.987989,-8.82 -4.524,4.416 4.524,4.404 h -2.928 l -2.832,-2.772 v 2.772 h -2.028 v -8.82 h 2.028 v 2.784 l 2.844,-2.784 z m 5.651998,2.04 h -3.624 v 1.332 h 2.94 v 2.028 h -2.94 v 1.392 h 3.624 v 2.028 h -5.652 v -8.796 l 5.652,-0.012 z m 2.796011,-2.064 q 0.876,0.048 1.644003,0.42 0.78,0.372 1.344,0.972 0.576,0.6 0.9,1.392 0.336,0.792 0.336,1.692 0,0.888 -0.324,1.668 -0.324,0.768 -0.9,1.356 -0.564,0.588 -1.332,0.948 -0.768,0.348 -1.668003,0.396 h -2.028 v -8.856 h 2.028 z m 0,6.804 q 0.468,-0.048 0.864,-0.24 0.408003,-0.204 0.696003,-0.504 0.3,-0.312 0.468,-0.72 0.168,-0.408 0.168,-0.864 0,-0.468 -0.168,-0.888 -0.168,-0.432 -0.468,-0.756 -0.3,-0.336 -0.696003,-0.54 -0.396,-0.216 -0.864,-0.264 z m 10.212003,-4.74 h -3.624 v 1.332 h 2.94 v 2.028 h -2.94 v 1.392 h 3.624 v 2.028 h -5.652 v -8.796 l 5.652,-0.012 z m 6.08402,6.78 -0.348,-1.068 h -2.772 l -0.36,1.068 h -2.148 l 3,-8.808 h 1.92 l 2.844,8.808 z m -2.424,-3.096 h 1.428 l -0.696,-2.136 z m 10.236,-5.712 h 2.028 v 8.808 h -2.196 l -2.88,-5.136 v 5.136 h -2.028 v -8.784 h 2.208 l 2.868,5.124 z m 8.388,8.808 h -5.244 v -8.82 h 2.028 v 6.792 h 3.216 z m 2.856,0 h -2.028 v -8.82 h 2.028 z m 5.72399,-8.88 h 2.148 l -3,8.88 h -1.92 l -2.844,-8.88 h 2.136 l 1.692,5.448 z m 7.74001,2.1 h -3.624 v 1.332 h 2.94 v 2.028 h -2.94 v 1.392 h 3.624 v 2.028 h -5.652 v -8.796 l 5.652,-0.012 z"
     id="text10-9"
     style="font-weight:bold;font-size:12px;font-family:'The Bold Font';-inkscape-font-specification:'The Bold Font Bold';opacity:0.3;fill:#f2f2f2;stroke-width:37.7953;stroke-linecap:round;stroke-linejoin:round"
     aria-label="@mIKEDEANLIVE" /></svg>
